# xmcd CD database file
#
# Track frame offsets:
#	150
#	12175
#	39903
#	63348
#	102014
#	122330
#	133977
#	152471
#	198411
#	207824
#	222674
#	236938
#
# Disc length: 3357 seconds
#
# Revision: 3
# Processed by: cddbd v1.5.2PL0 Copyright (c) Steve Scherf et al.
# Submitted via: CDex 1.51
#
DISCID=a30d1b0c
DTITLE=B.B. KING - Big Blues Collection(3)
DYEAR=2003
DGENRE=Blues
TTITLE0=How Blue Can You Get 
TTITLE1=Sweet Sixteen
TTITLE2=Ghetto Woman
TTITLE3=Why I Sing The Blues
TTITLE4=Hummingbird
TTITLE5=All Over Again
TTITLE6=Guess Who
TTITLE7=Lucille
TTITLE8=Sneaking Around
TTITLE9=I Go Some Help
TTITLE10=Ain't Nobody Home
TTITLE11=I Like Live The Love
EXTD=Efes Pilsener Blues CollectionTome 3 YEAR: 2003
EXTT0=
EXTT1=
EXTT2=
EXTT3=
EXTT4=
EXTT5=
EXTT6=
EXTT7=
EXTT8=
EXTT9=
EXTT10=
EXTT11=
PLAYORDER=
